<svg width="31" height="35" viewBox="0 0 31 35" fill="none" xmlns="http://www.w3.org/2000/svg">
<g clip-path="url(#clip0_637_2086)">
<path d="M22.8972 12.6025C25.1515 14.2131 27.9131 15.1608 30.8957 15.1608V9.4244C30.3312 9.42452 29.7682 9.36562 29.2159 9.24867V13.764C26.2336 13.764 23.4723 12.8165 21.2176 11.206V22.9124C21.2176 28.7687 16.4677 33.5156 10.609 33.5156C8.4229 33.5156 6.39097 32.8551 4.70312 31.7222C6.62957 33.691 9.31613 34.9122 12.2882 34.9122C18.1475 34.9122 22.8975 30.1653 22.8975 24.3088V12.6025H22.8972ZM24.9695 6.81521C23.8173 5.55726 23.0609 3.93157 22.8972 2.13426V1.39648H21.3054C21.7061 3.68078 23.0729 5.63233 24.9695 6.81521ZM8.40878 27.2284C7.76513 26.385 7.4172 25.353 7.41876 24.292C7.41876 21.6137 9.5913 19.442 12.2717 19.442C12.7711 19.4417 13.2676 19.5184 13.7437 19.6693V13.8046C13.1874 13.7284 12.6259 13.696 12.0647 13.7079V18.2726C11.5884 18.1217 11.0916 18.045 10.5919 18.0455C7.91166 18.0455 5.73925 20.2169 5.73925 22.8957C5.73925 24.7898 6.82509 26.4296 8.40878 27.2284Z" fill="#FF004F"/>
<path d="M21.2177 11.2059C23.4725 12.8164 26.2335 13.7639 29.216 13.7639V9.24855C27.5512 8.89409 26.0775 8.02464 24.9694 6.81521C23.0728 5.63221 21.7062 3.68066 21.3055 1.39648H17.1245V24.3086C17.1149 26.9797 14.9461 29.1424 12.2715 29.1424C10.6956 29.1424 9.29532 28.3916 8.40862 27.2283C6.82517 26.4296 5.7392 24.7896 5.7392 22.8958C5.7392 20.2173 7.91162 18.0456 10.5919 18.0456C11.1054 18.0456 11.6004 18.1255 12.0647 18.2728V13.708C6.30874 13.8269 1.67969 18.5275 1.67969 24.3087C1.67969 27.1946 2.83239 29.8108 4.70333 31.7224C6.39117 32.8551 8.42298 33.5159 10.6092 33.5159C16.468 33.5159 21.2178 28.7685 21.2178 22.9124L21.2177 11.2059Z" fill="black"/>
<path d="M29.2159 9.24845V8.02779C27.7147 8.03007 26.2431 7.60986 24.9694 6.81522C26.0968 8.04893 27.5815 8.89969 29.2159 9.24869M21.3053 1.39638C21.2672 1.17813 21.2378 0.958409 21.2175 0.737776V0H15.4444V22.9123C15.4352 25.5832 13.2664 27.7459 10.5917 27.7459C9.83346 27.7471 9.08556 27.5698 8.40845 27.2286C9.29515 28.3916 10.6954 29.1423 12.2714 29.1423C14.9458 29.1423 17.1149 26.9798 17.1243 24.3087V1.3965L21.3053 1.39638ZM12.0649 13.7079V12.4082C11.5825 12.3423 11.0961 12.3093 10.6092 12.3095C4.74974 12.3095 0 17.0567 0 22.9123C0 26.5836 1.86671 29.819 4.7034 31.7222C2.83247 29.8107 1.67976 27.1944 1.67976 24.3086C1.67976 18.5276 6.30869 13.8268 12.0649 13.7079Z" fill="#00F2EA"/>
</g>
<defs>
<clipPath id="clip0_637_2086">
<rect width="30.8966" height="35" fill="white"/>
</clipPath>
</defs>
</svg>
